<svg xmlns="http://www.w3.org/2000/svg" width="88" height="88" viewBox="0 0 88 88">
    <g fill="none" fill-rule="evenodd">
        <g>
            <path d="M0 0H88V88H0z"/>
            <path fill="#BED0FF" fill-rule="nonzero" d="M68 55c.552 0 1 .448 1 1v3l-.002.055C73.498 59.55 77 63.367 77 68c0 4.876-3.878 8.846-8.718 8.996-.089.027-.184.04-.282.04-.098 0-.193-.013-.283-.04C62.877 76.846 59 72.876 59 68c0-4.634 3.502-8.45 8.003-8.945-.002-.017-.003-.036-.003-.055v-3c0-.552.448-1 1-1zm-48 0c.552 0 1 .448 1 1v3l-.002.055C25.498 59.55 29 63.367 29 68c0 4.97-4.03 9-9 9s-9-4.03-9-9c0-4.634 3.502-8.45 8.003-8.945-.002-.017-.003-.036-.003-.055v-3c0-.552.448-1 1-1zm24 0c.552 0 1 .448 1 1v3l-.002.055C49.498 59.55 53 63.367 53 68c0 4.97-4.03 9-9 9s-9-4.03-9-9c0-4.634 3.502-8.45 8.003-8.945-.002-.017-.003-.036-.003-.055v-3c0-.552.448-1 1-1zm-24 6c-3.866 0-7 3.134-7 7s3.134 7 7 7 7-3.134 7-7-3.134-7-7-7zm24 0c-3.866 0-7 3.134-7 7s3.134 7 7 7 7-3.134 7-7-3.134-7-7-7zm24 0c-3.866 0-7 3.134-7 7 0 1.907.763 3.636 2 4.898v-1.921c0-.553.448-1 1-1 .513 0 .936.386.993.883l.007.117v3.35c.622.295 1.294.501 2 .602v-6.892c0-.552.448-1 1-1 .513 0 .936.386.993.883l.007.117.001 6.892c.722-.103 1.41-.317 2.043-.624v-4.77c0-.553.448-1 1-1 .513 0 .935.385.993.883l.007.116v3.32C74.255 71.594 75 69.883 75 68c0-3.866-3.134-7-7-7zm-47.643 2.037c.395 0 .714.32.714.714v.714h.715c.394 0 .714.32.714.715 0 .394-.32.714-.714.714h-2.143c-.395 0-.714.32-.714.714 0 .395.32.715.714.715h.714c1.037.008 1.92.757 2.095 1.78.176 1.022-.406 2.023-1.38 2.377v.843c0 .394-.32.714-.715.714-.394 0-.714-.32-.714-.714v-.715h-1.429c-.394 0-.714-.32-.714-.714 0-.394.32-.714.714-.714h2.143c.395 0 .714-.32.714-.715 0-.394-.32-.714-.714-.714h-.714c-1.184 0-2.143-.96-2.143-2.143 0-1.183.96-2.143 2.143-2.143v-.714c0-.394.32-.714.714-.714zM44 62.743c.513 0 .936.386.993.883l.007.117v3.851l2.167 2.23c.356.365.376.932.065 1.32l-.084.093c-.366.356-.933.375-1.321.065l-.093-.085-2.451-2.52c-.151-.155-.247-.355-.275-.568L43 68v-4.257c0-.553.448-1 1-1zm24.519.902l.102.071 1.382 1.096 1.43-1.103c.403-.312.97-.267 1.32.085l.082.095c.312.403.267.97-.085 1.32l-.095.082-2.048 1.583c-.327.253-.772.275-1.12.07l-.112-.078-1.376-1.091-3.379 2.674c-.4.316-.966.278-1.32-.07l-.084-.094c-.317-.4-.278-.966.07-1.32l.094-.085 4-3.164c.33-.262.785-.286 1.139-.071zM44 51c.552 0 1 .448 1 1s-.448 1-1 1-1-.448-1-1 .448-1 1-1zm24 0c.552 0 1 .448 1 1s-.448 1-1 1-1-.448-1-1 .448-1 1-1zm-48 0c.552 0 1 .448 1 1s-.448 1-1 1-1-.448-1-1 .448-1 1-1zm8-4c.552 0 1 .448 1 1s-.448 1-1 1-1-.448-1-1 .448-1 1-1zm-4 0c.552 0 1 .448 1 1s-.448 1-1 1-1-.448-1-1 .448-1 1-1zm-4 0c.552 0 1 .448 1 1s-.448 1-1 1-1-.448-1-1 .448-1 1-1zm24 0c.552 0 1 .448 1 1s-.448 1-1 1-1-.448-1-1 .448-1 1-1zm12 0c.552 0 1 .448 1 1s-.448 1-1 1-1-.448-1-1 .448-1 1-1zm-24 0c.552 0 1 .448 1 1s-.448 1-1 1-1-.448-1-1 .448-1 1-1zm16 0c.552 0 1 .448 1 1s-.448 1-1 1-1-.448-1-1 .448-1 1-1zm12 0c.552 0 1 .448 1 1s-.448 1-1 1-1-.448-1-1 .448-1 1-1zm4 0c.552 0 1 .448 1 1s-.448 1-1 1-1-.448-1-1 .448-1 1-1zm4 0c.552 0 1 .448 1 1s-.448 1-1 1-1-.448-1-1 .448-1 1-1zm-16 0c.552 0 1 .448 1 1s-.448 1-1 1-1-.448-1-1 .448-1 1-1zm-12 0c.552 0 1 .448 1 1s-.448 1-1 1-1-.448-1-1 .448-1 1-1zm-4 0c.552 0 1 .448 1 1s-.448 1-1 1-1-.448-1-1 .448-1 1-1zm8-4c.552 0 1 .448 1 1s-.448 1-1 1-1-.448-1-1 .448-1 1-1zm.065-31.75l.313.006.315.013c6.744.363 12.061 5.946 12.057 12.739-.01 6.604-5.056 12.11-11.634 12.693l-.158.012c.027.091.042.187.042.287v3c0 .552-.448 1-1 1s-1-.448-1-1v-3c0-.1.014-.195.041-.286-.049-.003-.101-.008-.155-.013-6.873-.604-12.018-6.562-11.614-13.448.392-6.677 5.865-11.878 12.482-12l.311-.003zM44 20.212c-1.057 0-2.01.637-2.414 1.614-.405.976-.181 2.1.566 2.848.334.334.362.857.084 1.222l-.084.096-.76.76-.312.322c-1.332 1.418-2.375 3.082-3.07 4.899l-.155.422-.014.16.093.195.281.217c1.326.991 2.885 1.625 4.526 1.841l.353.04.4.03c.182.011.344.016.506.016.109 0 .217-.002.33-.007l.177-.009.397-.03c1.773-.167 3.46-.82 4.882-1.88l.28-.218.093-.195v-.078l-.157-.437c-.706-1.88-1.75-3.547-3.081-4.965l-.313-.323-.76-.76-.083-.096c-.278-.365-.25-.888.083-1.222.748-.747.972-1.872.567-2.848-.404-.977-1.357-1.614-2.415-1.614zm-7.566-4.057c-4.144 4.006-4.437 10.53-.72 14.888l.206.235.272.302.147-.379.173-.43c.774-1.847 1.873-3.543 3.243-5.005l.32-.333.163-.169-.096-.163-.11-.196c-.967-1.85-.53-4.138 1.08-5.497 1.669-1.408 4.108-1.408 5.776 0 1.61 1.359 2.048 3.648 1.08 5.497l-.11.196-.096.163.482.5c1.372 1.464 2.47 3.16 3.245 5.008l.173.429.146.379.272-.302.207-.235c3.717-4.358 3.423-10.882-.72-14.888-4.22-4.078-10.913-4.078-15.133 0z"/>
        </g>
    </g>
</svg>
