<svg xmlns="http://www.w3.org/2000/svg" width="18" height="18" viewBox="0 0 18 18">
    <g fill="none" fill-rule="evenodd">
        <g fill="#0C142B" fill-rule="nonzero">
            <g>
                <path d="M9 0C4.037 0 0 4.037 0 9s4.037 9 9 9 9-4.037 9-9-4.037-9-9-9zm0 1.35c1.864 0 3.568.664 4.894 1.767-1.239 1.091-2.655 1.978-4.183 2.66-.796-1.448-1.66-2.852-2.63-4.176C7.695 1.443 8.336 1.35 9 1.35zm-3.247.728c.996 1.316 1.874 2.72 2.683 4.171-1.663.578-3.424.951-5.286.951-.525 0-1.043-.035-1.557-.085.566-2.24 2.11-4.077 4.16-5.037zm9.098 1.993c1.107 1.313 1.778 3.004 1.795 4.856-.971-.244-1.987-.377-3.034-.377-.822 0-1.617.106-2.395.258-.272-.628-.569-1.238-.874-1.847 1.647-.745 3.175-1.707 4.508-2.89zM9.08 7.457c.285.563.573 1.122.827 1.702-2.728.853-5.07 2.585-6.641 4.898C2.076 12.71 1.35 10.944 1.35 9c0-.186.015-.369.028-.552.583.06 1.172.102 1.772.102 2.09 0 4.07-.422 5.93-1.093zM13.613 9.9c1.011 0 1.988.144 2.92.397-.354 2.073-1.532 3.859-3.193 5.004-.4-1.772-.96-3.48-1.601-5.148.618-.106 1.224-.253 1.873-.253zm-3.222.506c.707 1.8 1.312 3.653 1.717 5.583-.95.422-2 .661-3.108.661-1.795 0-3.44-.62-4.743-1.65 1.417-2.185 3.587-3.821 6.134-4.594z" transform="translate(-1352 -8) translate(1352 8)"/>
            </g>
        </g>
    </g>
</svg>
