<svg xmlns="http://www.w3.org/2000/svg" width="88" height="88" viewBox="0 0 88 88">
    <g fill="none" fill-rule="evenodd">
        <g>
            <path d="M0 0H88V88H0z"/>
            <path fill="#BED0FF" fill-rule="nonzero" d="M73 14c.552 0 1 .448 1 1v58c0 .552-.448 1-1 1H15c-.552 0-1-.448-1-1V15c0-.552.448-1 1-1h58zm-1 10H16v48h56V24zM53 65c.552 0 1 .448 1 1s-.448 1-1 1h-4c-.552 0-1-.448-1-1s.448-1 1-1h4zm-8 0c.552 0 1 .448 1 1s-.448 1-1 1-1-.448-1-1 .448-1 1-1zm20-4c.552 0 1 .448 1 1s-.448 1-1 1h-8c-.552 0-1-.448-1-1s.448-1 1-1h8zm-12 0c.552 0 1 .448 1 1s-.448 1-1 1h-2c-.552 0-1-.448-1-1s.448-1 1-1h2zm-3.12-20.909c.466.214.69.741.535 1.217l-.043.11-6.162 13.427c-.23.502-.824.722-1.326.491-.466-.214-.69-.74-.534-1.217l.042-.109 6.162-13.427c.23-.502.824-.722 1.326-.492zm-15.807.202c.36.36.388.928.083 1.32l-.083.094-5.788 5.787 5.788 5.788c.36.36.388.927.083 1.32l-.083.094c-.36.36-.928.388-1.32.083l-.094-.083-6.494-6.495c-.36-.36-.389-.927-.084-1.32l.084-.094 6.494-6.494c.39-.39 1.024-.39 1.414 0zm20.092 0c.39-.39 1.023-.39 1.414 0l6.494 6.494.083.094c.305.393.278.96-.083 1.32l-6.494 6.495-.094.083c-.393.305-.96.277-1.32-.083l-.084-.094c-.305-.393-.277-.96.084-1.32l5.788-5.788-5.788-5.787-.084-.094c-.305-.392-.277-.96.084-1.32zM31 32c.552 0 1 .448 1 1s-.448 1-1 1h-8c-.552 0-1-.448-1-1s.448-1 1-1h8zm6 0c.552 0 1 .448 1 1s-.448 1-1 1h-2c-.552 0-1-.448-1-1s.448-1 1-1h2zm2-4c.552 0 1 .448 1 1s-.448 1-1 1h-4c-.552 0-1-.448-1-1s.448-1 1-1h4zm4 0c.552 0 1 .448 1 1s-.448 1-1 1-1-.448-1-1 .448-1 1-1zm29-12H16v6h56v-6zm-53 2c.552 0 1 .448 1 1s-.448 1-1 1-1-.448-1-1 .448-1 1-1zm4 0c.552 0 1 .448 1 1s-.448 1-1 1-1-.448-1-1 .448-1 1-1zm4 0c.552 0 1 .448 1 1s-.448 1-1 1-1-.448-1-1 .448-1 1-1z"/>
        </g>
    </g>
</svg>
