<svg xmlns="http://www.w3.org/2000/svg" width="24" height="32" viewBox="0 0 24 32">
    <g fill="none" fill-rule="evenodd">
        <g fill-rule="nonzero">
            <g>
                <path fill="#EA2A40" d="M17.219 21.504c.798 0 1.592-.102 2.38-.307.789-.205 1.506-.548 2.15-1.03.646-.48 1.163-1.115 1.552-1.904.39-.788.584-1.766.584-2.934 0-1.085-.2-1.997-.6-2.734-.399-.737-.92-1.331-1.566-1.782-.645-.45-1.347-.778-2.104-.983l.23.071.173-.074.35-.18c.788-.451 1.387-1.056 1.796-1.813.41-.758.615-1.588.615-2.489 0-1.7-.487-3.015-1.46-3.947C20.348.466 18.96 0 17.158 0H9.14c-.348 0-.64.118-.875.353-.236.236-.354.528-.354.876v19.015c0 .349.118.646.354.891.235.246.527.369.875.369h8.08z" transform="translate(-32 -16) translate(32 16)"/>
                <path fill="#356CFF" d="M1.413 31.488c.348 0 .625-.123.83-.369.204-.245.307-.542.307-.89v-7.465h6.482c.3 0 .596.022.887.068l.434.085c.43.103.819.287 1.167.553.348.266.625.614.83 1.045.204.43.307.972.307 1.628 0 1.167.102 2.089.307 2.765.205.675.46 1.192.768 1.55.307.36.624.63.952.815.164.102.359.169.584.2.225.03.45.005.676-.077.225-.082.399-.215.522-.4.205-.286.261-.583.169-.89-.092-.308-.282-.553-.568-.738-.226-.143-.4-.343-.523-.599-.123-.256-.215-.609-.276-1.06-.062-.45-.113-1.054-.154-1.812-.02-.86-.205-1.613-.553-2.258-.348-.645-.798-1.178-1.351-1.597-.222-.168-.454-.316-.698-.443l-.176-.082.108-.047c.423-.203.816-.451 1.18-.746l.354-.31c.573-.543 1.024-1.188 1.351-1.936.328-.747.492-1.551.492-2.411 0-1.188-.272-2.238-.814-3.15-.543-.91-1.275-1.627-2.197-2.15-.921-.522-1.956-.783-3.102-.783h-8.48c-.347 0-.64.118-.875.353-.235.236-.353.528-.353.876v19.015c0 .349.138.646.415.891.276.246.609.369.998.369z" transform="translate(-32 -16) translate(32 16)"/>
                <path fill="#FFF" d="M9.708 9.984l.34.008c1.012.047 1.933.305 2.762.775.922.523 1.654 1.24 2.197 2.15.542.912.814 1.962.814 3.15 0 .86-.164 1.664-.492 2.411-.327.748-.778 1.393-1.351 1.935l-.354.31c-.364.296-.757.544-1.18.747l-.077.033-3.228.001-.146-.008c-.284-.03-.527-.15-.73-.36-.235-.246-.353-.543-.353-.892V9.984h1.798z" transform="translate(-32 -16) translate(32 16)"/>
            </g>
        </g>
    </g>
</svg>
