<svg xmlns="http://www.w3.org/2000/svg" width="14" height="13" viewBox="0 0 14 13">
    <g fill="none" fill-rule="evenodd">
        <g fill="#EA2A40">
            <g>
                <path d="M77.716 3.86l-.086-.067c-1.632-1.224-3.917-1.018-5.385.538-1.631 1.731-1.666 4.5-.067 6.197l4.894 5.191c.353.375.936.375 1.288 0l4.895-5.191c1.6-1.697 1.565-4.466-.067-6.197-1.468-1.556-3.753-1.762-5.38-.542l-.092.07zm4.841 1.066c1.32 1.4 1.348 3.648.067 5.007l-4.894 5.192c-.01.011-.016.011-.027 0L72.81 9.933c-1.281-1.359-1.253-3.607.067-5.007 1.236-1.31 3.173-1.414 4.455-.258l.09.084c.166.155.425.155.592 0l.095-.09c1.248-1.125 3.128-1.05 4.366.178l.083.086z" transform="translate(-103 -11) translate(32 8)"/>
            </g>
        </g>
    </g>
</svg>
