<svg xmlns="http://www.w3.org/2000/svg" width="88" height="88" viewBox="0 0 88 88">
    <g fill="none" fill-rule="evenodd">
        <g>
            <path d="M0 0H88V88H0z"/>
            <path fill="#BED0FF" fill-rule="nonzero" d="M73 14c.552 0 1 .448 1 1v58c0 .552-.448 1-1 1H15c-.552 0-1-.448-1-1V15c0-.552.448-1 1-1h58zm-1 10H16v48h56V24zm-30 2c.552 0 1 .448 1 1v42c0 .552-.448 1-1 1H19c-.552 0-1-.448-1-1V27c0-.552.448-1 1-1h23zm27 23c.552 0 1 .448 1 1v19c0 .552-.448 1-1 1H46c-.552 0-1-.448-1-1V50c0-.552.448-1 1-1h23zM41 28H20v40h21V28zm27 23H47v17h21V51zm-10.5 3.5c2.761 0 5 2.239 5 5s-2.239 5-5 5c-2.76-.003-4.997-2.24-5-5 0-2.761 2.239-5 5-5zM38 62c.552 0 1 .448 1 1s-.448 1-1 1H23c-.552 0-1-.448-1-1s.448-1 1-1h15zm19.5-5.5c-1.657 0-3 1.343-3 3s1.343 3 3 3 3-1.343 3-3-1.343-3-3-3zM38 58c.552 0 1 .448 1 1s-.448 1-1 1H23c-.552 0-1-.448-1-1s.448-1 1-1h15zm0-4c.552 0 1 .448 1 1s-.448 1-1 1H23c-.552 0-1-.448-1-1s.448-1 1-1h15zm0-4c.552 0 1 .448 1 1s-.448 1-1 1h-3c-.552 0-1-.448-1-1s.448-1 1-1h3zm-7 0c.552 0 1 .448 1 1s-.448 1-1 1h-8c-.552 0-1-.448-1-1s.448-1 1-1h8zm7-4c.552 0 1 .448 1 1s-.448 1-1 1H23c-.552 0-1-.448-1-1s.448-1 1-1h15zm31-20c.552 0 1 .448 1 1v19c0 .552-.448 1-1 1H46c-.552 0-1-.448-1-1V27c0-.552.448-1 1-1h23zm-1 2H47v17h21V28zM38 42c.552 0 1 .448 1 1s-.448 1-1 1H23c-.552 0-1-.448-1-1s.448-1 1-1h15zm19.502-9.967c.35 0 .675.175.868.467l4 7c.179.31.179.691 0 1-.18.31-.51.5-.868.5h-8c-.358 0-.688-.19-.868-.5-.179-.309-.179-.69 0-1l4-7c.192-.292.519-.467.868-.467zM38 38c.552 0 1 .448 1 1s-.448 1-1 1H23c-.552 0-1-.448-1-1s.448-1 1-1h15zm19.502-2.984L55.225 39h4.554l-2.277-3.984zM26 34c.552 0 1 .448 1 1s-.448 1-1 1h-3c-.552 0-1-.448-1-1s.448-1 1-1h3zm12 0c.552 0 1 .448 1 1s-.448 1-1 1h-8c-.552 0-1-.448-1-1s.448-1 1-1h8zm0-4c.552 0 1 .448 1 1s-.448 1-1 1H23c-.552 0-1-.448-1-1s.448-1 1-1h15zm34-14H16v6h56v-6zm-53 2c.552 0 1 .448 1 1s-.448 1-1 1-1-.448-1-1 .448-1 1-1zm4 0c.552 0 1 .448 1 1s-.448 1-1 1-1-.448-1-1 .448-1 1-1zm4 0c.552 0 1 .448 1 1s-.448 1-1 1-1-.448-1-1 .448-1 1-1z"/>
        </g>
    </g>
</svg>
