<svg xmlns="http://www.w3.org/2000/svg" width="88" height="88" viewBox="0 0 88 88">
    <g fill="none" fill-rule="evenodd">
        <g>
            <path d="M0 0H88V88H0z"/>
            <path fill="#BED0FF" fill-rule="nonzero" d="M18.923 53.824c4.052-2.679 9.38-2.383 13.111.728l2.259-2.259 1.414 1.414-2.259 2.259c2.734 3.277 3.324 7.84 1.514 11.705C33.152 71.536 29.268 74.003 25 74c-4.857.005-9.143-3.177-10.544-7.827-1.4-4.651.415-9.67 4.467-12.349zm37.043.728c3.73-3.11 9.06-3.407 13.111-.728 4.052 2.679 5.867 7.698 4.467 12.349C72.143 70.823 67.857 74.005 63 74c-4.268.003-8.152-2.464-9.962-6.33-1.81-3.864-1.22-8.427 1.514-11.704l-2.259-2.259 1.414-1.414zM25 54c-4.968.006-8.994 4.032-9 9 0 4.97 4.03 9 9 9s9-4.03 9-9-4.03-9-9-9zm38 0c-4.968.006-8.994 4.032-9 9 0 4.97 4.03 9 9 9s9-4.03 9-9-4.03-9-9-9zM48 67c.552 0 1 .448 1 1s-.448 1-1 1-1-.448-1-1 .448-1 1-1zm-4 0c.552 0 1 .448 1 1s-.448 1-1 1-1-.448-1-1 .448-1 1-1zm-4 0c.552 0 1 .448 1 1s-.448 1-1 1-1-.448-1-1 .448-1 1-1zm22.4-9.8c.356-.267.844-.267 1.2 0l4 3c.252.189.4.485.4.8v4c0 .315-.148.611-.4.8l-4 3c-.356.267-.844.267-1.2 0l-4-3c-.252-.189-.4-.485-.4-.8v-4c0-.315.148-.611.4-.8zM29 58c.552 0 1 .448 1 1v8c0 .552-.448 1-1 1h-8c-.552 0-1-.448-1-1v-8c0-.552.448-1 1-1zm34 1.25l-3 2.25v3l3 2.25 3-2.25v-3l-3-2.25zM28 60h-6v6h6v-6zm16.034-27.007l.292.005C50.274 33.174 55.004 38.05 55 44c-.008 5.697-4.362 10.447-10.037 10.951-.319.031-.64.049-.963.049-.323 0-.644-.018-.963-.049-5.928-.521-10.367-5.662-10.018-11.602.349-5.941 5.359-10.527 11.307-10.35zM44 41c-.809 0-1.538.487-1.848 1.234-.31.748-.138 1.608.434 2.18.39.39.39 1.024 0 1.414l-.643.643c-1.32 1.324-2.327 2.929-2.943 4.695v.066c1.217.981 2.696 1.583 4.253 1.73.247.021.495.038.747.038s.5-.017.747-.038c1.557-.147 3.036-.749 4.253-1.73v-.066c-.616-1.766-1.622-3.37-2.943-4.695l-.643-.643c-.39-.39-.39-1.024 0-1.414.572-.572.743-1.432.434-2.18C45.538 41.487 44.809 41 44 41zm6.255-3.493c-3.488-3.371-9.022-3.371-12.51 0-3.488 3.372-3.676 8.902-.425 12.503.718-1.854 1.81-3.54 3.209-4.953l.024-.025c-.99-1.68-.623-3.829.867-5.086 1.49-1.258 3.67-1.258 5.16 0 1.49 1.257 1.856 3.406.867 5.086l.024.025c1.399 1.413 2.491 3.099 3.209 4.953 3.251-3.6 3.063-9.13-.425-12.503zM68 47c.552 0 1 .448 1 1s-.448 1-1 1-1-.448-1-1 .448-1 1-1zm-45 0c.552 0 1 .448 1 1s-.448 1-1 1-1-.448-1-1 .448-1 1-1zm0-4c.552 0 1 .448 1 1s-.448 1-1 1-1-.448-1-1 .448-1 1-1zm45 0c.552 0 1 .448 1 1s-.448 1-1 1-1-.448-1-1 .448-1 1-1zm-45-4c.552 0 1 .448 1 1s-.448 1-1 1-1-.448-1-1 .448-1 1-1zm45 0c.552 0 1 .448 1 1s-.448 1-1 1-1-.448-1-1 .448-1 1-1zM20.322 15.054c4.662-2.189 10.22-.847 13.37 3.228 3.15 4.075 3.049 9.791-.244 13.752l2.259 2.259-1.414 1.414-2.259-2.259C30.062 35.098 27.572 36.001 25 36c-5.15.003-9.613-3.57-10.736-8.598-1.123-5.026 1.395-10.159 6.058-12.348zM63 14c6.075 0 11 4.925 11 11s-4.925 11-11 11c-1.535 0-3.053-.324-4.454-.952l-4.337.93c-.069.015-.139.022-.209.022-.292 0-.57-.128-.76-.35-.19-.221-.273-.515-.228-.803l.63-4.067c-2.096-3.393-2.19-7.655-.248-11.138C55.336 16.16 59.012 14 63 14zm-38 2c-4.968.006-8.994 4.032-9 9 0 4.97 4.03 9 9 9s9-4.03 9-9-4.03-9-9-9zm42.24 1.061c-3.642-1.945-8.14-1.162-10.912 1.899-2.77 3.06-3.104 7.615-.807 11.046.14.208.196.462.158.71l-.466 3.006 3.243-.7c.069-.014.139-.022.209-.022.15 0 .3.034.435.1 1.215.592 2.549.9 3.9.9 4.129 0 7.728-2.81 8.731-6.815 1.003-4.005-.849-8.179-4.491-10.124zM25 20c2.761 0 5 2.239 5 5s-2.239 5-5 5c-2.76-.003-4.997-2.24-5-5 0-2.761 2.239-5 5-5zm38 .033c.35 0 .676.175.868.467l4 7c.179.31.179.691 0 1-.18.31-.51.5-.868.5h-8c-.358 0-.688-.19-.868-.5-.179-.309-.179-.69 0-1l4-7c.192-.292.519-.467.868-.467zM25 22c-1.657 0-3 1.343-3 3s1.343 3 3 3 3-1.343 3-3-1.343-3-3-3zm38 1.016L60.723 27h4.554L63 23.016zM40 19c.552 0 1 .448 1 1s-.448 1-1 1-1-.448-1-1 .448-1 1-1zm4 0c.552 0 1 .448 1 1s-.448 1-1 1-1-.448-1-1 .448-1 1-1zm4 0c.552 0 1 .448 1 1s-.448 1-1 1-1-.448-1-1 .448-1 1-1z"/>
        </g>
    </g>
</svg>
