<svg xmlns="http://www.w3.org/2000/svg" width="16" height="16" viewBox="0 0 16 16">
    <g fill="none" fill-rule="evenodd">
        <g fill="#0C142B" fill-rule="nonzero">
            <g>
                <path d="M3.478 15.304H0V4.87h3.478v10.434zM1.74 3.478c-.962 0-1.74-.78-1.74-1.74S.78 0 1.74 0c.958 0 1.738.78 1.738 1.738 0 .96-.78 1.74-1.738 1.74zM16 15.304h-3.344v-5.078c0-1.211-.023-2.769-1.738-2.769-1.742 0-2.01 1.32-2.01 2.681v5.166H5.566V4.862h3.21v1.427h.045c.447-.821 1.538-1.687 3.166-1.687C15.374 4.602 16 6.765 16 9.577v5.727z" transform="translate(-1395 -9) translate(1395 9)"/>
            </g>
        </g>
    </g>
</svg>
